<svg width="194" height="63" viewBox="0 0 194 63" fill="none" xmlns="http://www.w3.org/2000/svg">
<g filter="url(#filter0_d_1_661)">
<path d="M21.3692 36.308C20.6972 36.308 20.0532 36.2147 19.4372 36.028C18.8212 35.8413 18.2612 35.5893 17.7572 35.272C17.2719 34.9547 16.8612 34.5907 16.5252 34.18C16.2079 33.7507 15.9932 33.312 15.8812 32.864L16.8612 32.528L16.6092 35.972H12.4372V15.28H16.9452V24.688L16.0212 24.352C16.1332 23.8667 16.3479 23.4187 16.6652 23.008C16.9826 22.5787 17.3839 22.2053 17.8692 21.888C18.3546 21.552 18.8866 21.2907 19.4652 21.104C20.0439 20.9173 20.6412 20.824 21.2572 20.824C22.5452 20.824 23.6839 21.16 24.6732 21.832C25.6812 22.4853 26.4746 23.4 27.0532 24.576C27.6319 25.7333 27.9212 27.0587 27.9212 28.552C27.9212 30.064 27.6319 31.408 27.0532 32.584C26.4932 33.7413 25.7186 34.656 24.7292 35.328C23.7399 35.9813 22.6199 36.308 21.3692 36.308ZM20.1932 32.528C20.8652 32.528 21.4532 32.36 21.9572 32.024C22.4612 31.688 22.8439 31.2307 23.1052 30.652C23.3852 30.0547 23.5252 29.3547 23.5252 28.552C23.5252 27.768 23.3852 27.0773 23.1052 26.48C22.8439 25.8827 22.4612 25.4253 21.9572 25.108C21.4532 24.7907 20.8652 24.632 20.1932 24.632C19.5026 24.632 18.9052 24.7907 18.4012 25.108C17.8972 25.4253 17.5052 25.8827 17.2252 26.48C16.9452 27.0773 16.8052 27.768 16.8052 28.552C16.8052 29.3547 16.9452 30.0547 17.2252 30.652C17.5052 31.2307 17.8972 31.688 18.4012 32.024C18.9052 32.36 19.5026 32.528 20.1932 32.528ZM31.1189 36V21.132H35.5989V36H31.1189ZM33.3589 18.192C32.5189 18.192 31.8562 17.996 31.3709 17.604C30.9042 17.1933 30.6709 16.6147 30.6709 15.868C30.6709 15.196 30.9136 14.6453 31.3989 14.216C31.8842 13.7867 32.5376 13.572 33.3589 13.572C34.1989 13.572 34.8522 13.7773 35.3189 14.188C35.7856 14.58 36.0189 15.14 36.0189 15.868C36.0189 16.5587 35.7762 17.1187 35.2909 17.548C34.8242 17.9773 34.1802 18.192 33.3589 18.192ZM46.6123 42.44C45.399 42.44 44.1856 42.2627 42.9723 41.908C41.7776 41.5533 40.807 41.096 40.0603 40.536L41.6283 37.4C42.0203 37.6613 42.4496 37.8853 42.9163 38.072C43.4016 38.2773 43.9056 38.436 44.4283 38.548C44.951 38.66 45.483 38.716 46.0243 38.716C46.9763 38.716 47.751 38.576 48.3483 38.296C48.9456 38.016 49.3936 37.5867 49.6923 37.008C49.991 36.448 50.1403 35.7387 50.1403 34.88V32.388L51.0083 32.528C50.8776 33.144 50.551 33.704 50.0283 34.208C49.5243 34.712 48.899 35.1227 48.1523 35.44C47.4056 35.7387 46.6123 35.888 45.7723 35.888C44.4283 35.888 43.2243 35.58 42.1603 34.964C41.115 34.3293 40.2843 33.4613 39.6683 32.36C39.071 31.24 38.7723 29.952 38.7723 28.496C38.7723 27.0027 39.071 25.6867 39.6683 24.548C40.2656 23.3907 41.087 22.4853 42.1323 21.832C43.1776 21.16 44.3536 20.824 45.6603 20.824C46.2203 20.824 46.7523 20.8893 47.2563 21.02C47.779 21.1507 48.255 21.328 48.6843 21.552C49.1323 21.7573 49.5243 22.0093 49.8603 22.308C50.215 22.588 50.495 22.896 50.7003 23.232C50.9243 23.568 51.0736 23.9133 51.1483 24.268L50.2243 24.492L50.3923 21.132H54.6483V34.796C54.6483 36.0093 54.4616 37.0827 54.0883 38.016C53.7336 38.968 53.2016 39.7707 52.4923 40.424C51.8016 41.096 50.9616 41.6 49.9723 41.936C48.983 42.272 47.863 42.44 46.6123 42.44ZM46.7243 32.416C47.4523 32.416 48.0776 32.2573 48.6003 31.94C49.1416 31.604 49.5523 31.1467 49.8323 30.568C50.131 29.9893 50.2803 29.308 50.2803 28.524C50.2803 27.74 50.131 27.0587 49.8323 26.48C49.5523 25.8827 49.1416 25.4253 48.6003 25.108C48.0776 24.772 47.4523 24.604 46.7243 24.604C46.015 24.604 45.399 24.772 44.8763 25.108C44.3536 25.4253 43.943 25.8827 43.6443 26.48C43.3643 27.0587 43.2243 27.74 43.2243 28.524C43.2243 29.308 43.3643 29.9893 43.6443 30.568C43.943 31.1467 44.3536 31.604 44.8763 31.94C45.399 32.2573 46.015 32.416 46.7243 32.416ZM65.5388 36.28C63.9894 36.28 62.6081 35.944 61.3948 35.272C60.2001 34.6 59.2481 33.6853 58.5388 32.528C57.8481 31.3707 57.5028 30.0453 57.5028 28.552C57.5028 27.0587 57.8481 25.7333 58.5388 24.576C59.2481 23.4187 60.2001 22.504 61.3948 21.832C62.6081 21.16 63.9894 20.824 65.5388 20.824C67.0881 20.824 68.4601 21.16 69.6548 21.832C70.8681 22.504 71.8201 23.4187 72.5108 24.576C73.2014 25.7333 73.5468 27.0587 73.5468 28.552C73.5468 30.0453 73.2014 31.3707 72.5108 32.528C71.8201 33.6853 70.8681 34.6 69.6548 35.272C68.4601 35.944 67.0881 36.28 65.5388 36.28ZM65.5388 32.416C66.2108 32.416 66.8081 32.248 67.3308 31.912C67.8534 31.576 68.2641 31.1187 68.5628 30.54C68.8614 29.9613 69.0014 29.2987 68.9828 28.552C69.0014 27.8053 68.8614 27.1427 68.5628 26.564C68.2641 25.9667 67.8534 25.5 67.3308 25.164C66.8081 24.828 66.2108 24.66 65.5388 24.66C64.8668 24.66 64.2601 24.828 63.7188 25.164C63.1961 25.5 62.7854 25.9667 62.4868 26.564C62.1881 27.1427 62.0481 27.8053 62.0668 28.552C62.0481 29.2987 62.1881 29.9613 62.4868 30.54C62.7854 31.1187 63.1961 31.576 63.7188 31.912C64.2601 32.248 64.8668 32.416 65.5388 32.416ZM82.1043 36.308C80.8163 36.308 79.6683 35.9813 78.6603 35.328C77.6709 34.656 76.8869 33.7413 76.3083 32.584C75.7296 31.408 75.4403 30.0733 75.4403 28.58C75.4403 27.0867 75.7296 25.7613 76.3083 24.604C76.8869 23.428 77.6803 22.504 78.6883 21.832C79.6963 21.16 80.8536 20.824 82.1603 20.824C82.8323 20.824 83.4763 20.9267 84.0923 21.132C84.7083 21.3373 85.2683 21.6173 85.7723 21.972C86.2763 22.3267 86.6869 22.7373 87.0043 23.204C87.3216 23.652 87.5083 24.1187 87.5643 24.604L86.5003 24.856V15.28H91.0083V36H86.8363L86.5843 32.612L87.4803 32.752C87.4243 33.2187 87.2376 33.6667 86.9203 34.096C86.6216 34.5253 86.2296 34.908 85.7443 35.244C85.2589 35.5613 84.6989 35.8133 84.0643 36C83.4483 36.2053 82.7949 36.308 82.1043 36.308ZM83.2523 32.584C83.9429 32.584 84.5403 32.416 85.0443 32.08C85.5483 31.744 85.9309 31.2773 86.1923 30.68C86.4723 30.0827 86.6123 29.3827 86.6123 28.58C86.6123 27.7587 86.4723 27.0493 86.1923 26.452C85.9309 25.8547 85.5483 25.388 85.0443 25.052C84.5403 24.716 83.9429 24.548 83.2523 24.548C82.5616 24.548 81.9643 24.716 81.4603 25.052C80.9749 25.388 80.5923 25.8547 80.3123 26.452C80.0323 27.0493 79.8923 27.7587 79.8923 28.58C79.8923 29.3827 80.0323 30.0827 80.3123 30.68C80.5923 31.2773 80.9749 31.744 81.4603 32.08C81.9643 32.416 82.5616 32.584 83.2523 32.584ZM101.881 36.28C100.238 36.28 98.8099 35.9533 97.5966 35.3C96.3833 34.628 95.4406 33.7227 94.7686 32.584C94.0966 31.4267 93.7606 30.1107 93.7606 28.636C93.7606 27.4973 93.9473 26.452 94.3206 25.5C94.6939 24.548 95.2166 23.7267 95.8886 23.036C96.5606 22.3267 97.3539 21.7853 98.2686 21.412C99.2019 21.02 100.219 20.824 101.321 20.824C102.366 20.824 103.318 21.0107 104.177 21.384C105.054 21.7573 105.81 22.28 106.445 22.952C107.079 23.624 107.565 24.4173 107.901 25.332C108.237 26.2467 108.386 27.2453 108.349 28.328L108.321 29.532H96.4766L95.8326 27.012H104.681L104.205 27.544V26.984C104.167 26.5173 104.018 26.1067 103.757 25.752C103.514 25.3787 103.187 25.0893 102.777 24.884C102.366 24.6787 101.899 24.576 101.377 24.576C100.649 24.576 100.023 24.7253 99.5006 25.024C98.9966 25.304 98.6139 25.724 98.3526 26.284C98.0913 26.8253 97.9606 27.4973 97.9606 28.3C97.9606 29.1213 98.1286 29.84 98.4646 30.456C98.8193 31.0533 99.3233 31.52 99.9766 31.856C100.649 32.192 101.442 32.36 102.357 32.36C102.991 32.36 103.551 32.2667 104.037 32.08C104.541 31.8933 105.082 31.576 105.661 31.128L107.761 34.096C107.182 34.6 106.566 35.0107 105.913 35.328C105.259 35.6453 104.587 35.8787 103.897 36.028C103.225 36.196 102.553 36.28 101.881 36.28Z" fill="#3B44F6"/>
<path d="M118.063 36.28C116.924 36.28 115.879 36.14 114.927 35.86C113.975 35.5613 113.116 35.1227 112.351 34.544C111.586 33.9653 110.904 33.2653 110.307 32.444L112.687 29.756C113.602 31.0253 114.498 31.9027 115.375 32.388C116.252 32.8733 117.242 33.116 118.343 33.116C118.978 33.116 119.556 33.0227 120.079 32.836C120.602 32.6307 121.012 32.36 121.311 32.024C121.61 31.6693 121.759 31.268 121.759 30.82C121.759 30.5027 121.694 30.2133 121.563 29.952C121.451 29.672 121.274 29.4293 121.031 29.224C120.788 29 120.49 28.7947 120.135 28.608C119.78 28.4213 119.379 28.2627 118.931 28.132C118.483 28.0013 117.988 27.88 117.447 27.768C116.42 27.5627 115.524 27.292 114.759 26.956C113.994 26.6013 113.35 26.172 112.827 25.668C112.304 25.1453 111.922 24.5667 111.679 23.932C111.436 23.2787 111.315 22.5413 111.315 21.72C111.315 20.8987 111.492 20.1427 111.847 19.452C112.22 18.7613 112.724 18.164 113.359 17.66C113.994 17.156 114.731 16.764 115.571 16.484C116.411 16.204 117.316 16.064 118.287 16.064C119.388 16.064 120.368 16.1947 121.227 16.456C122.104 16.7173 122.87 17.1093 123.523 17.632C124.195 18.136 124.746 18.752 125.175 19.48L122.767 21.86C122.394 21.2813 121.974 20.8053 121.507 20.432C121.04 20.04 120.536 19.7507 119.995 19.564C119.454 19.3587 118.884 19.256 118.287 19.256C117.615 19.256 117.027 19.3493 116.523 19.536C116.038 19.7227 115.655 19.9933 115.375 20.348C115.095 20.684 114.955 21.0947 114.955 21.58C114.955 21.9533 115.039 22.2893 115.207 22.588C115.375 22.868 115.608 23.12 115.907 23.344C116.224 23.568 116.626 23.764 117.111 23.932C117.596 24.1 118.147 24.2493 118.763 24.38C119.79 24.5853 120.714 24.8653 121.535 25.22C122.356 25.556 123.056 25.9667 123.635 26.452C124.214 26.9187 124.652 27.46 124.951 28.076C125.25 28.6733 125.399 29.3453 125.399 30.092C125.399 31.38 125.091 32.4907 124.475 33.424C123.878 34.3387 123.028 35.048 121.927 35.552C120.826 36.0373 119.538 36.28 118.063 36.28ZM130.382 36V17.492H133.826V36H130.382ZM127.47 24.436V21.244H137.046V24.436H127.47ZM146.28 36.28C144.805 36.28 143.489 35.9533 142.332 35.3C141.174 34.628 140.26 33.7133 139.588 32.556C138.916 31.3987 138.58 30.0827 138.58 28.608C138.58 27.1333 138.916 25.8173 139.588 24.66C140.26 23.5027 141.174 22.5973 142.332 21.944C143.489 21.272 144.805 20.936 146.28 20.936C147.736 20.936 149.042 21.272 150.2 21.944C151.357 22.5973 152.262 23.5027 152.916 24.66C153.588 25.8173 153.924 27.1333 153.924 28.608C153.924 30.0827 153.588 31.3987 152.916 32.556C152.262 33.7133 151.357 34.628 150.2 35.3C149.042 35.9533 147.736 36.28 146.28 36.28ZM146.28 33.228C147.082 33.228 147.792 33.0227 148.408 32.612C149.042 32.2013 149.537 31.6507 149.892 30.96C150.265 30.2693 150.442 29.4853 150.424 28.608C150.442 27.712 150.265 26.9187 149.892 26.228C149.537 25.5373 149.042 24.996 148.408 24.604C147.792 24.1933 147.082 23.988 146.28 23.988C145.477 23.988 144.749 24.1933 144.096 24.604C143.461 24.996 142.966 25.5467 142.612 26.256C142.257 26.9467 142.08 27.7307 142.08 28.608C142.08 29.4853 142.257 30.2693 142.612 30.96C142.966 31.6507 143.461 32.2013 144.096 32.612C144.749 33.0227 145.477 33.228 146.28 33.228ZM157.004 36V21.244H160.392L160.448 25.948L159.972 24.884C160.178 24.1373 160.532 23.4653 161.036 22.868C161.54 22.2707 162.119 21.804 162.772 21.468C163.444 21.1133 164.144 20.936 164.872 20.936C165.19 20.936 165.488 20.964 165.768 21.02C166.067 21.076 166.31 21.1413 166.496 21.216L165.572 24.996C165.367 24.884 165.115 24.7907 164.816 24.716C164.518 24.6413 164.219 24.604 163.92 24.604C163.454 24.604 163.006 24.6973 162.576 24.884C162.166 25.052 161.802 25.2947 161.484 25.612C161.167 25.9293 160.915 26.3027 160.728 26.732C160.56 27.1427 160.476 27.6093 160.476 28.132V36H157.004ZM175.077 36.28C173.527 36.28 172.155 35.9533 170.961 35.3C169.785 34.6467 168.861 33.76 168.189 32.64C167.535 31.5013 167.209 30.204 167.209 28.748C167.209 27.5907 167.395 26.536 167.769 25.584C168.142 24.632 168.655 23.8107 169.309 23.12C169.981 22.4107 170.774 21.8693 171.689 21.496C172.622 21.104 173.639 20.908 174.741 20.908C175.711 20.908 176.617 21.0947 177.457 21.468C178.297 21.8413 179.025 22.3547 179.641 23.008C180.257 23.6427 180.723 24.408 181.041 25.304C181.377 26.1813 181.535 27.1427 181.517 28.188L181.489 29.392H169.533L168.889 27.04H178.605L178.157 27.516V26.9C178.101 26.3213 177.914 25.8173 177.597 25.388C177.279 24.94 176.869 24.5947 176.365 24.352C175.879 24.0907 175.338 23.96 174.741 23.96C173.826 23.96 173.051 24.1373 172.417 24.492C171.801 24.8467 171.334 25.36 171.017 26.032C170.699 26.6853 170.541 27.5067 170.541 28.496C170.541 29.448 170.737 30.2787 171.129 30.988C171.539 31.6973 172.109 32.248 172.837 32.64C173.583 33.0133 174.451 33.2 175.441 33.2C176.131 33.2 176.766 33.088 177.345 32.864C177.923 32.64 178.549 32.2387 179.221 31.66L180.929 34.04C180.425 34.5067 179.846 34.908 179.193 35.244C178.558 35.5613 177.886 35.8133 177.177 36C176.467 36.1867 175.767 36.28 175.077 36.28Z" fill="#F5F4F9"/>
</g>
<defs>
<filter id="filter0_d_1_661" x="-12" y="-4" width="217" height="75" filterUnits="userSpaceOnUse" color-interpolation-filters="sRGB">
<feFlood flood-opacity="0" result="BackgroundImageFix"/>
<feColorMatrix in="SourceAlpha" type="matrix" values="0 0 0 0 0 0 0 0 0 0 0 0 0 0 0 0 0 0 127 0" result="hardAlpha"/>
<feOffset dy="8"/>
<feGaussianBlur stdDeviation="6"/>
<feComposite in2="hardAlpha" operator="out"/>
<feColorMatrix type="matrix" values="0 0 0 0 0.55 0 0 0 0 0.55 0 0 0 0 0.55 0 0 0 0.15 0"/>
<feBlend mode="normal" in2="BackgroundImageFix" result="effect1_dropShadow_1_661"/>
<feBlend mode="normal" in="SourceGraphic" in2="effect1_dropShadow_1_661" result="shape"/>
</filter>
</defs>
</svg>
